<?xml version="1.0" encoding="UTF-8" standalone="no"?>
<!-- Created with Inkscape (http://www.inkscape.org/) -->

<svg
   xmlns:dc="http://purl.org/dc/elements/1.1/"
   xmlns:cc="http://creativecommons.org/ns#"
   xmlns:rdf="http://www.w3.org/1999/02/22-rdf-syntax-ns#"
   xmlns:svg="http://www.w3.org/2000/svg"
   xmlns="http://www.w3.org/2000/svg"
   xmlns:sodipodi="http://sodipodi.sourceforge.net/DTD/sodipodi-0.dtd"
   xmlns:inkscape="http://www.inkscape.org/namespaces/inkscape"
   version="1.1"
   id="svg2"
   xml:space="preserve"
   width="559.37335"
   height="377.94666"
   viewBox="0 0 559.37335 377.94666"
   sodipodi:docname="logo_bv_asesores_patrocinador_oro.ai"
   inkscape:version="0.92.2 2405546, 2018-03-11"><metadata
     id="metadata8"><rdf:RDF><cc:Work
         rdf:about=""><dc:format>image/svg+xml</dc:format><dc:type
           rdf:resource="http://purl.org/dc/dcmitype/StillImage" /><dc:title></dc:title></cc:Work></rdf:RDF></metadata><defs
     id="defs6"><clipPath
       clipPathUnits="userSpaceOnUse"
       id="clipPath18"><path
         d="M 0,283.46 H 419.53 V 0 H 0 Z"
         id="path16"
         inkscape:connector-curvature="0" /></clipPath></defs><sodipodi:namedview
     pagecolor="#ffffff"
     bordercolor="#666666"
     borderopacity="1"
     objecttolerance="10"
     gridtolerance="10"
     guidetolerance="10"
     inkscape:pageopacity="0"
     inkscape:pageshadow="2"
     inkscape:window-width="1545"
     inkscape:window-height="806"
     id="namedview4"
     showgrid="false"
     inkscape:zoom="1.2488535"
     inkscape:cx="95.910343"
     inkscape:cy="177.02829"
     inkscape:window-x="55"
     inkscape:window-y="30"
     inkscape:window-maximized="1"
     inkscape:current-layer="g14" /><g
     id="g10"
     inkscape:groupmode="layer"
     inkscape:label="logo_bv_asesores_patrocinador_oro"
     transform="matrix(1.3333333,0,0,-1.3333333,0,377.94667)"><g
       id="g12"><g
         id="g14"
         clip-path="url(#clipPath18)"><g
           id="g32"
           transform="matrix(1.5048343,0,0,1.5048343,35.056666,108.69549)"><path
             d="M 0,0 -0.88,3.258 H -0.899 L -1.859,0 Z m 0.27,-0.979 h -2.399 l -0.5,-1.68 h -1.279 l 2.339,6.976 H -0.17 L 2.079,-2.659 H 0.76 Z"
             style="fill:#231f20;fill-opacity:1;fill-rule:nonzero;stroke:none"
             id="path34"
             inkscape:connector-curvature="0" /></g><g
           id="g36"
           transform="matrix(1.5048343,0,0,1.5048343,42.041655,106.72491)"><path
             d="m 0,0 c 0.25,-0.16 0.8,-0.43 1.479,-0.43 0.56,0 1.06,0.311 1.06,1.01 0,0.5 -0.29,0.719 -0.91,1.059 l -0.65,0.36 c -0.689,0.38 -1.139,0.93 -1.139,1.829 0,1.249 1.03,1.899 2.199,1.899 0.739,0 1.26,-0.19 1.459,-0.25 L 3.438,4.408 C 3.129,4.527 2.719,4.707 2.129,4.707 c -0.64,0 -0.97,-0.34 -0.97,-0.818 0,-0.521 0.351,-0.721 0.74,-0.94 l 0.749,-0.42 c 0.821,-0.461 1.21,-0.9 1.21,-1.879 0,-1.42 -1.009,-2.099 -2.338,-2.099 -0.701,0 -1.24,0.099 -1.589,0.31 z"
             style="fill:#231f20;fill-opacity:1;fill-rule:nonzero;stroke:none"
             id="path38"
             inkscape:connector-curvature="0" /></g><g
           id="g40"
           transform="matrix(1.5048343,0,0,1.5048343,52.485806,115.19246)"><path
             d="M 0,0 H 3.668 V -1.02 H 1.279 V -2.879 H 3.538 V -3.898 H 1.279 v -2.059 h 2.49 v -1.02 H 0 Z"
             style="fill:#231f20;fill-opacity:1;fill-rule:nonzero;stroke:none"
             id="path42"
             inkscape:connector-curvature="0" /></g><g
           id="g44"
           transform="matrix(1.5048343,0,0,1.5048343,62.658037,106.72491)"><path
             d="m 0,0 c 0.25,-0.16 0.8,-0.43 1.479,-0.43 0.56,0 1.06,0.311 1.06,1.01 0,0.5 -0.29,0.719 -0.91,1.059 l -0.65,0.36 c -0.689,0.38 -1.139,0.93 -1.139,1.829 0,1.249 1.03,1.899 2.199,1.899 0.739,0 1.26,-0.19 1.459,-0.25 L 3.438,4.408 C 3.129,4.527 2.719,4.707 2.129,4.707 c -0.64,0 -0.97,-0.34 -0.97,-0.818 0,-0.521 0.351,-0.721 0.74,-0.94 l 0.749,-0.42 c 0.821,-0.461 1.21,-0.9 1.21,-1.879 0,-1.42 -1.009,-2.099 -2.338,-2.099 -0.701,0 -1.24,0.099 -1.589,0.31 z"
             style="fill:#231f20;fill-opacity:1;fill-rule:nonzero;stroke:none"
             id="path46"
             inkscape:connector-curvature="0" /></g><g
           id="g48"
           transform="matrix(1.5048343,0,0,1.5048343,76.862917,106.01793)"><path
             d="m 0,0 c 0.81,0 1.459,0.69 1.459,2.608 0,1.92 -0.649,2.61 -1.459,2.61 -0.81,0 -1.459,-0.69 -1.459,-2.61 C -1.459,0.69 -0.81,0 0,0 m 0,6.196 c 1.449,0 2.778,-1.079 2.778,-3.588 0,-2.507 -1.329,-3.587 -2.778,-3.587 -1.449,0 -2.778,1.08 -2.778,3.587 0,2.509 1.329,3.588 2.778,3.588"
             style="fill:#231f20;fill-opacity:1;fill-rule:nonzero;stroke:none"
             id="path50"
             inkscape:connector-curvature="0" /></g><g
           id="g52"
           transform="matrix(1.5048343,0,0,1.5048343,88.253467,110.62062)"><path
             d="M 0,0 C 0.68,0 1.14,0.35 1.14,1.06 1.14,1.858 0.72,2.059 0,2.059 H -0.52 V 0 Z M -1.799,3.038 H 0.38 c 1.239,0 2.079,-0.559 2.079,-1.839 0,-0.909 -0.57,-1.518 -1.35,-1.639 v -0.03 c 0.26,-0.04 0.55,-0.16 0.77,-0.809 l 0.91,-2.659 H 1.43 l -0.691,2.269 c -0.17,0.549 -0.499,0.73 -0.968,0.73 H -0.52 v -2.999 h -1.279 z"
             style="fill:#231f20;fill-opacity:1;fill-rule:nonzero;stroke:none"
             id="path54"
             inkscape:connector-curvature="0" /></g><g
           id="g56"
           transform="matrix(1.5048343,0,0,1.5048343,97.839557,117.85526)"><path
             d="M 0,0 H 1.159 L 0.14,-1.439 H -0.64 Z M -0.689,-1.77 H 0.59 v -6.977 h -1.279 z"
             style="fill:#231f20;fill-opacity:1;fill-rule:nonzero;stroke:none"
             id="path58"
             inkscape:connector-curvature="0" /></g><g
           id="g60"
           transform="matrix(1.5048343,0,0,1.5048343,108.61282,108.69549)"><path
             d="M 0,0 -0.88,3.258 H -0.899 L -1.859,0 Z m 0.27,-0.979 h -2.399 l -0.5,-1.68 h -1.279 l 2.339,6.976 H -0.17 L 2.079,-2.659 H 0.76 Z"
             style="fill:#231f20;fill-opacity:1;fill-rule:nonzero;stroke:none"
             id="path62"
             inkscape:connector-curvature="0" /></g><g
           id="g64"
           transform="matrix(1.5048343,0,0,1.5048343,122.42975,115.19246)"><path
             d="M 0,0 H 3.528 V -1.02 H 1.279 v -1.898 h 2.15 v -1.02 H 1.279 V -6.977 H 0 Z"
             style="fill:#231f20;fill-opacity:1;fill-rule:nonzero;stroke:none"
             id="path66"
             inkscape:connector-curvature="0" /></g><path
           d="m 132.19583,115.19321 h 1.92468 v -10.49923 h -1.92468 z"
           style="fill:#231f20;fill-opacity:1;fill-rule:nonzero;stroke:none;stroke-width:1.50483429"
           id="path68"
           inkscape:connector-curvature="0" /><g
           id="g70"
           transform="matrix(1.5048343,0,0,1.5048343,139.01227,106.72491)"><path
             d="m 0,0 c 0.25,-0.16 0.8,-0.43 1.479,-0.43 0.56,0 1.06,0.311 1.06,1.01 0,0.5 -0.29,0.719 -0.91,1.059 l -0.65,0.36 c -0.689,0.38 -1.139,0.93 -1.139,1.829 0,1.249 1.03,1.899 2.199,1.899 0.739,0 1.26,-0.19 1.459,-0.25 L 3.438,4.408 C 3.129,4.527 2.719,4.707 2.129,4.707 c -0.64,0 -0.97,-0.34 -0.97,-0.818 0,-0.521 0.351,-0.721 0.74,-0.94 l 0.749,-0.42 c 0.821,-0.461 1.21,-0.9 1.21,-1.879 0,-1.42 -1.009,-2.099 -2.338,-2.099 -0.701,0 -1.24,0.099 -1.589,0.31 z"
             style="fill:#231f20;fill-opacity:1;fill-rule:nonzero;stroke:none"
             id="path72"
             inkscape:connector-curvature="0" /></g><g
           id="g74"
           transform="matrix(1.5048343,0,0,1.5048343,156.13412,104.92016)"><path
             d="m 0,0 c -0.26,-0.141 -0.879,-0.25 -1.509,-0.25 -2.119,0 -3.208,1.549 -3.208,3.588 0,2.039 1.089,3.588 3.168,3.588 0.71,0 1.289,-0.19 1.549,-0.289 L -0.069,5.486 c -0.26,0.131 -0.67,0.381 -1.32,0.381 -1.059,0 -1.968,-0.721 -1.968,-2.529 0,-1.809 0.909,-2.528 1.968,-2.528 0.619,0 1.03,0.149 1.32,0.36 z"
             style="fill:#231f20;fill-opacity:1;fill-rule:nonzero;stroke:none"
             id="path76"
             inkscape:connector-curvature="0" /></g><g
           id="g78"
           transform="matrix(1.5048343,0,0,1.5048343,165.4644,108.69549)"><path
             d="M 0,0 -0.88,3.258 H -0.899 L -1.859,0 Z m 0.27,-0.979 h -2.399 l -0.5,-1.68 h -1.279 l 2.339,6.976 H -0.17 L 2.079,-2.659 H 0.76 Z"
             style="fill:#231f20;fill-opacity:1;fill-rule:nonzero;stroke:none"
             id="path80"
             inkscape:connector-curvature="0" /></g><g
           id="g82"
           transform="matrix(1.5048343,0,0,1.5048343,172.49634,115.19246)"><path
             d="m 0,0 h 1.279 v -5.957 h 2.299 v -1.02 H 0 Z"
             style="fill:#231f20;fill-opacity:1;fill-rule:nonzero;stroke:none"
             id="path84"
             inkscape:connector-curvature="0" /></g><g
           id="g86"
           transform="matrix(1.5048343,0,0,1.5048343,183.79585,106.61896)"><path
             d="M 0,0 -0.76,-2.479 H -1.72 L -1.2,0 Z"
             style="fill:#231f20;fill-opacity:1;fill-rule:nonzero;stroke:none"
             id="path88"
             inkscape:connector-curvature="0" /></g><g
           id="g90"
           transform="matrix(1.5048343,0,0,1.5048343,194.79844,115.19246)"><path
             d="m 0,0 h 1.279 v -5.957 h 2.299 v -1.02 H 0 Z"
             style="fill:#231f20;fill-opacity:1;fill-rule:nonzero;stroke:none"
             id="path92"
             inkscape:connector-curvature="0" /></g><g
           id="g94"
           transform="matrix(1.5048343,0,0,1.5048343,209.21038,108.69549)"><path
             d="M 0,0 -0.88,3.258 H -0.899 L -1.859,0 Z m 0.27,-0.979 h -2.399 l -0.5,-1.68 h -1.279 l 2.339,6.976 H -0.17 L 2.079,-2.659 H 0.76 Z"
             style="fill:#231f20;fill-opacity:1;fill-rule:nonzero;stroke:none"
             id="path96"
             inkscape:connector-curvature="0" /></g><g
           id="g98"
           transform="matrix(1.5048343,0,0,1.5048343,218.1953,106.16932)"><path
             d="M 0,0 H 0.71 C 1.399,0 1.779,0.42 1.779,1.068 1.779,1.679 1.46,2.139 0.67,2.139 H 0 Z m 0,3.078 h 0.66 c 0.63,0 0.999,0.469 0.999,1.039 0,0.59 -0.42,0.94 -1.029,0.94 H 0 Z M -1.239,5.996 H 0.8 c 1.439,0 2.098,-0.539 2.098,-1.719 0,-1.109 -0.699,-1.439 -1.159,-1.609 v -0.02 c 0.54,-0.12 1.32,-0.5 1.32,-1.669 0,-1.27 -0.93,-1.959 -2.169,-1.959 h -2.129 z"
             style="fill:#231f20;fill-opacity:1;fill-rule:nonzero;stroke:none"
             id="path100"
             inkscape:connector-curvature="0" /></g><g
           id="g102"
           transform="matrix(1.5048343,0,0,1.5048343,231.24221,106.01793)"><path
             d="m 0,0 c 0.81,0 1.459,0.69 1.459,2.608 0,1.92 -0.649,2.61 -1.459,2.61 -0.81,0 -1.459,-0.69 -1.459,-2.61 C -1.459,0.69 -0.81,0 0,0 m 0,6.196 c 1.449,0 2.778,-1.079 2.778,-3.588 0,-2.507 -1.329,-3.587 -2.778,-3.587 -1.449,0 -2.778,1.08 -2.778,3.587 0,2.509 1.329,3.588 2.778,3.588"
             style="fill:#231f20;fill-opacity:1;fill-rule:nonzero;stroke:none"
             id="path104"
             inkscape:connector-curvature="0" /></g><g
           id="g106"
           transform="matrix(1.5048343,0,0,1.5048343,242.63125,110.62062)"><path
             d="M 0,0 C 0.68,0 1.14,0.35 1.14,1.06 1.14,1.858 0.72,2.059 0,2.059 H -0.52 V 0 Z M -1.799,3.038 H 0.38 c 1.239,0 2.079,-0.559 2.079,-1.839 0,-0.909 -0.57,-1.518 -1.35,-1.639 v -0.03 c 0.26,-0.04 0.55,-0.16 0.77,-0.809 l 0.91,-2.659 H 1.43 l -0.691,2.269 c -0.17,0.549 -0.499,0.73 -0.968,0.73 H -0.52 v -2.999 h -1.279 z"
             style="fill:#231f20;fill-opacity:1;fill-rule:nonzero;stroke:none"
             id="path108"
             inkscape:connector-curvature="0" /></g><g
           id="g110"
           transform="matrix(1.5048343,0,0,1.5048343,256.02488,108.69549)"><path
             d="M 0,0 -0.88,3.258 H -0.899 L -1.859,0 Z m 0.27,-0.979 h -2.399 l -0.5,-1.68 h -1.279 l 2.339,6.976 H -0.17 L 2.079,-2.659 H 0.76 Z"
             style="fill:#231f20;fill-opacity:1;fill-rule:nonzero;stroke:none"
             id="path112"
             inkscape:connector-curvature="0" /></g><g
           id="g114"
           transform="matrix(1.5048343,0,0,1.5048343,263.05381,115.19246)"><path
             d="m 0,0 h 1.279 v -5.957 h 2.299 v -1.02 H 0 Z"
             style="fill:#231f20;fill-opacity:1;fill-rule:nonzero;stroke:none"
             id="path116"
             inkscape:connector-curvature="0" /></g><g
           id="g118"
           transform="matrix(1.5048343,0,0,1.5048343,280.58422,108.90571)"><path
             d="M 0,0 -2.059,4.178 H -0.68 L 0.68,1.389 1.959,4.178 H 3.338 L 1.279,-0.029 v -2.77 H 0 Z"
             style="fill:#231f20;fill-opacity:1;fill-rule:nonzero;stroke:none"
             id="path120"
             inkscape:connector-curvature="0" /></g><g
           id="g122"
           transform="matrix(1.5048343,0,0,1.5048343,303.00249,104.92016)"><path
             d="m 0,0 c -0.26,-0.141 -0.879,-0.25 -1.509,-0.25 -2.119,0 -3.208,1.549 -3.208,3.588 0,2.039 1.089,3.588 3.168,3.588 0.71,0 1.289,-0.19 1.549,-0.289 L -0.069,5.486 c -0.26,0.131 -0.67,0.381 -1.32,0.381 -1.059,0 -1.968,-0.721 -1.968,-2.529 0,-1.809 0.909,-2.528 1.968,-2.528 0.619,0 1.03,0.149 1.32,0.36 z"
             style="fill:#231f20;fill-opacity:1;fill-rule:nonzero;stroke:none"
             id="path124"
             inkscape:connector-curvature="0" /></g><g
           id="g126"
           transform="matrix(1.5048343,0,0,1.5048343,311.23499,106.01793)"><path
             d="m 0,0 c 0.81,0 1.459,0.69 1.459,2.608 0,1.92 -0.649,2.61 -1.459,2.61 -0.81,0 -1.459,-0.69 -1.459,-2.61 C -1.459,0.69 -0.81,0 0,0 m 0,6.196 c 1.449,0 2.778,-1.079 2.778,-3.588 0,-2.507 -1.329,-3.587 -2.778,-3.587 -1.449,0 -2.778,1.08 -2.778,3.587 0,2.509 1.329,3.588 2.778,3.588"
             style="fill:#231f20;fill-opacity:1;fill-rule:nonzero;stroke:none"
             id="path128"
             inkscape:connector-curvature="0" /></g><g
           id="g130"
           transform="matrix(1.5048343,0,0,1.5048343,319.99508,115.19246)"><path
             d="m 0,0 h 1.52 l 2.318,-5.477 h 0.02 V 0 h 1.16 V -6.977 H 3.488 L 1.18,-1.539 H 1.159 V -6.977 H 0 Z"
             style="fill:#231f20;fill-opacity:1;fill-rule:nonzero;stroke:none"
             id="path132"
             inkscape:connector-curvature="0" /></g><g
           id="g134"
           transform="matrix(1.5048343,0,0,1.5048343,334.09251,113.65828)"><path
             d="M 0,0 H -1.559 V 1.02 H 2.829 V 0 H 1.279 V -5.957 H 0 Z"
             style="fill:#231f20;fill-opacity:1;fill-rule:nonzero;stroke:none"
             id="path136"
             inkscape:connector-curvature="0" /></g><g
           id="g138"
           transform="matrix(1.5048343,0,0,1.5048343,346.29583,108.69549)"><path
             d="M 0,0 -0.88,3.258 H -0.899 L -1.859,0 Z m 0.27,-0.979 h -2.399 l -0.5,-1.68 h -1.279 l 2.339,6.976 H -0.17 L 2.079,-2.659 H 0.76 Z"
             style="fill:#231f20;fill-opacity:1;fill-rule:nonzero;stroke:none"
             id="path140"
             inkscape:connector-curvature="0" /></g><g
           id="g142"
           transform="matrix(1.5048343,0,0,1.5048343,355.28073,106.16932)"><path
             d="M 0,0 H 0.71 C 1.399,0 1.779,0.42 1.779,1.068 1.779,1.679 1.46,2.139 0.67,2.139 H 0 Z m 0,3.078 h 0.66 c 0.63,0 0.999,0.469 0.999,1.039 0,0.59 -0.42,0.94 -1.029,0.94 H 0 Z M -1.239,5.996 H 0.8 c 1.439,0 2.098,-0.539 2.098,-1.719 0,-1.109 -0.699,-1.439 -1.159,-1.609 v -0.02 c 0.54,-0.12 1.32,-0.5 1.32,-1.669 0,-1.27 -0.93,-1.959 -2.169,-1.959 h -2.129 z"
             style="fill:#231f20;fill-opacity:1;fill-rule:nonzero;stroke:none"
             id="path144"
             inkscape:connector-curvature="0" /></g><g
           id="g146"
           transform="matrix(1.5048343,0,0,1.5048343,364.47738,115.19246)"><path
             d="m 0,0 h 1.279 v -5.957 h 2.299 v -1.02 H 0 Z"
             style="fill:#231f20;fill-opacity:1;fill-rule:nonzero;stroke:none"
             id="path148"
             inkscape:connector-curvature="0" /></g><g
           id="g150"
           transform="matrix(1.5048343,0,0,1.5048343,374.03247,115.19246)"><path
             d="M 0,0 H 3.668 V -1.02 H 1.279 V -2.879 H 3.538 V -3.898 H 1.279 v -2.059 h 2.49 v -1.02 H 0 Z"
             style="fill:#231f20;fill-opacity:1;fill-rule:nonzero;stroke:none"
             id="path152"
             inkscape:connector-curvature="0" /></g><path
           d="m 244.07875,145.21616 h 2.04959 v -18.00083 h -2.04959 z m 3.49423,0 h 2.05109 v -18.00083 h -2.05109 z m 3.49723,0 h 2.04958 v -18.00083 h -2.04958 z m 3.49272,0 h 2.04959 v -18.00083 h -2.04959 z m 3.6718,0 H 380.91032 V 127.21533 H 258.23473 Z m -17.65171,0 h 2.05259 v -18.00083 h -2.05259 z"
           style="fill:#231f20;fill-opacity:1;fill-rule:nonzero;stroke:none;stroke-width:1.50483429"
           id="path154"
           inkscape:connector-curvature="0" /><g
           id="g156"
           transform="matrix(1.5048343,0,0,1.5048343,274.41937,133.53263)"><path
             d="m 0,0 -0.379,2.738 h -0.02 l -0.6,-3.828 H 0.2 Z M 0.021,4.197 1.64,-3.338 H 0.63 l -0.279,1.469 h -1.5 l -0.28,-1.469 h -0.979 l 1.638,7.535 z"
             style="fill:#ffffff;fill-opacity:1;fill-rule:nonzero;stroke:none"
             id="path158"
             inkscape:connector-curvature="0" /></g><g
           id="g160"
           transform="matrix(1.5048343,0,0,1.5048343,288.59491,138.10446)"><path
             d="m 0,0 c -0.26,0.19 -0.51,0.319 -0.85,0.319 -0.549,0 -0.889,-0.449 -0.889,-0.968 0,-0.33 0.08,-0.561 0.279,-0.821 l 0.76,-0.829 c 0.679,-0.689 1.069,-1.189 1.069,-2.208 0,-1.06 -0.659,-1.97 -1.768,-1.97 -0.39,0 -0.79,0.111 -1.1,0.361 v 1.01 c 0.3,-0.221 0.6,-0.391 0.989,-0.391 0.62,0 0.88,0.49 0.88,1.049 0,1.5 -2.109,1.8 -2.109,3.779 0,1.059 0.56,1.928 1.689,1.928 0.38,0 0.739,-0.06 1.06,-0.25 z"
             style="fill:#ffffff;fill-opacity:1;fill-rule:nonzero;stroke:none"
             id="path162"
             inkscape:connector-curvature="0" /></g><g
           id="g164"
           transform="matrix(1.5048343,0,0,1.5048343,301.70051,139.84887)"><path
             d="M 0,0 V -0.869 H -1.688 V -3.238 H -0.18 V -4.107 H -1.688 V -6.666 H 0 V -7.535 H -2.688 V 0 Z"
             style="fill:#ffffff;fill-opacity:1;fill-rule:nonzero;stroke:none"
             id="path166"
             inkscape:connector-curvature="0" /></g><g
           id="g168"
           transform="matrix(1.5048343,0,0,1.5048343,313.59065,138.10446)"><path
             d="m 0,0 c -0.26,0.19 -0.51,0.319 -0.85,0.319 -0.549,0 -0.889,-0.449 -0.889,-0.968 0,-0.33 0.08,-0.561 0.279,-0.821 l 0.76,-0.829 c 0.679,-0.689 1.069,-1.189 1.069,-2.208 0,-1.06 -0.659,-1.97 -1.768,-1.97 -0.39,0 -0.79,0.111 -1.1,0.361 v 1.01 c 0.3,-0.221 0.6,-0.391 0.989,-0.391 0.62,0 0.88,0.49 0.88,1.049 0,1.5 -2.109,1.8 -2.109,3.779 0,1.059 0.56,1.928 1.689,1.928 0.38,0 0.739,-0.06 1.06,-0.25 z"
             style="fill:#ffffff;fill-opacity:1;fill-rule:nonzero;stroke:none"
             id="path170"
             inkscape:connector-curvature="0" /></g><g
           id="g172"
           transform="matrix(1.5048343,0,0,1.5048343,323.95986,134.17925)"><path
             d="m 0,0 c 0,-1.6 0.109,-2.929 0.899,-2.929 0.789,0 0.9,1.329 0.9,2.929 0,1.6 -0.111,2.928 -0.9,2.928 C 0.109,2.928 0,1.6 0,0 m 2.858,0 c 0,-1.359 -0.02,-3.868 -1.959,-3.868 -1.939,0 -1.959,2.509 -1.959,3.868 0,1.359 0.02,3.867 1.959,3.867 1.939,0 1.959,-2.508 1.959,-3.867"
             style="fill:#ffffff;fill-opacity:1;fill-rule:nonzero;stroke:none"
             id="path174"
             inkscape:connector-curvature="0" /></g><g
           id="g176"
           transform="matrix(1.5048343,0,0,1.5048343,340.05904,136.61573)"><path
             d="M 0,0 C 0,0.719 -0.09,1.319 -0.85,1.299 H -1.009 V -1.189 C -0.26,-1.239 0,-0.76 0,0 m -2.009,2.148 h 1.199 c 0.731,0 1.87,-0.039 1.87,-1.928 0,-0.71 -0.21,-1.789 -1.039,-1.939 L 1.409,-5.387 H 0.37 l -1.359,3.688 h -0.02 v -3.688 h -1 z"
             style="fill:#ffffff;fill-opacity:1;fill-rule:nonzero;stroke:none"
             id="path178"
             inkscape:connector-curvature="0" /></g><g
           id="g180"
           transform="matrix(1.5048343,0,0,1.5048343,354.56504,139.84887)"><path
             d="M 0,0 V -0.869 H -1.688 V -3.238 H -0.18 V -4.107 H -1.688 V -6.666 H 0 V -7.535 H -2.688 V 0 Z"
             style="fill:#ffffff;fill-opacity:1;fill-rule:nonzero;stroke:none"
             id="path182"
             inkscape:connector-curvature="0" /></g><g
           id="g184"
           transform="matrix(1.5048343,0,0,1.5048343,366.45383,138.10446)"><path
             d="m 0,0 c -0.26,0.19 -0.51,0.319 -0.85,0.319 -0.549,0 -0.889,-0.449 -0.889,-0.968 0,-0.33 0.08,-0.561 0.279,-0.821 l 0.76,-0.829 c 0.679,-0.689 1.069,-1.189 1.069,-2.208 0,-1.06 -0.659,-1.97 -1.768,-1.97 -0.39,0 -0.79,0.111 -1.1,0.361 v 1.01 c 0.3,-0.221 0.6,-0.391 0.989,-0.391 0.62,0 0.88,0.49 0.88,1.049 0,1.5 -2.109,1.8 -2.109,3.779 0,1.059 0.56,1.928 1.689,1.928 0.38,0 0.739,-0.06 1.06,-0.25 z"
             style="fill:#ffffff;fill-opacity:1;fill-rule:nonzero;stroke:none"
             id="path186"
             inkscape:connector-curvature="0" /></g><g
           id="g188"
           transform="matrix(1.5048343,0,0,1.5048343,29.082925,100.58654)"><path
             d="M 0,0 H 234.84"
             style="fill:none;stroke:#ed1c24;stroke-width:1;stroke-linecap:butt;stroke-linejoin:miter;stroke-miterlimit:3.86400008;stroke-dasharray:none;stroke-opacity:1"
             id="path190"
             inkscape:connector-curvature="0" /></g><g
           id="g192"
           transform="matrix(1.5048343,0,0,1.5048343,90.719437,178.97004)"><path
             d="m 0,0 h 4.979 c 1.966,0 3.074,1.285 3.074,3.671 0,2.385 -1.108,3.576 -3.074,3.576 H 0 Z m 0.07,-12.751 v -7.614 h 6.744 c 2.223,0 3.514,1.558 3.514,3.761 0,2.384 -1.291,3.853 -3.514,3.853 z"
             style="fill:#ffffff;fill-opacity:1;fill-rule:nonzero;stroke:none"
             id="path194"
             inkscape:connector-curvature="0" /></g><g
           id="g196"
           transform="matrix(1.5048343,0,0,1.5048343,117.67418,170.66712)"><path
             d="m 0,0 c 5.463,-1.743 9.42,-6.973 9.42,-13.485 0,-9.999 -6.971,-15.596 -19.029,-15.596 h -29.106 v 56.327 h 27.506 C 0.848,27.246 7.816,22.018 7.816,11.927 7.816,5.871 4.238,1.467 0,0 m -19.68,5.687 h 4.979 c 1.969,0 3.074,1.286 3.074,3.671 0,2.385 -1.105,3.577 -3.074,3.577 h -4.979 z m 0.071,-12.75 v -7.616 h 6.744 c 2.224,0 3.513,1.56 3.513,3.762 0,2.385 -1.289,3.854 -3.513,3.854 z"
             style="fill:#0676b0;fill-opacity:1;fill-rule:nonzero;stroke:none"
             id="path198"
             inkscape:connector-curvature="0" /></g><g
           id="g200"
           transform="matrix(1.5048343,0,0,1.5048343,70.768637,169.84112)"><path
             d="m 0,0 c 0,-7.843 -6.357,-14.201 -14.201,-14.201 -7.844,0 -14.201,6.358 -14.201,14.201 0,7.843 6.357,14.201 14.201,14.201 C -6.357,14.201 0,7.843 0,0"
             style="fill:#ed1c24;fill-opacity:1;fill-rule:evenodd;stroke:none"
             id="path202"
             inkscape:connector-curvature="0" /></g><g
           id="g204"
           transform="matrix(1.5048343,0,0,1.5048343,174.79919,126.6918)"><path
             d="m 0,0 h -17.541 l -12.625,34.121 c 1.111,1.903 1.791,4.225 1.791,6.858 0,7.011 -3.365,11.675 -9.463,13.87 l -0.549,1.478 h 21.016 L -8.449,24.31 0.055,56.327 h 20.791 z"
             style="fill:#0676b0;fill-opacity:1;fill-rule:evenodd;stroke:none"
             id="path206"
             inkscape:connector-curvature="0" /></g></g></g></g></svg>